
/* 
  Funções de música baseadas numa biblioteca criada por Robson Couto
  Mais músicas disponíveis em: https://github.com/robsoncouto/arduino-songs                                            
                                              
*/

#include "Arduino.h"
#include "music.h"

int tempo0 = 144;

const int melody0[] = {

  REST, 2, NOTE_D4, 4,
  NOTE_G4, -4, NOTE_AS4, 8, NOTE_A4, 4,
  NOTE_G4, 2, NOTE_D5, 4,
  NOTE_C5, -2, 
  NOTE_A4, -2,
  NOTE_G4, -4, NOTE_AS4, 8, NOTE_A4, 4,
  NOTE_F4, 2, NOTE_GS4, 4,
  NOTE_D4, -1, 
  NOTE_D4, 4,

  NOTE_G4, -4, NOTE_AS4, 8, NOTE_A4, 4, //10
  NOTE_G4, 2, NOTE_D5, 4,
  NOTE_F5, 2, NOTE_E5, 4,
  NOTE_DS5, 2, NOTE_B4, 4,
  NOTE_DS5, -4, NOTE_D5, 8, NOTE_CS5, 4,
  NOTE_CS4, 2, NOTE_B4, 4,
  NOTE_G4, -1,
  NOTE_AS4, 4,
     
  NOTE_D5, 2, NOTE_AS4, 4,//18
  NOTE_D5, 2, NOTE_AS4, 4,
  NOTE_DS5, 2, NOTE_D5, 4,
  NOTE_CS5, 2, NOTE_A4, 4,
  NOTE_AS4, -4, NOTE_D5, 8, NOTE_CS5, 4,
  NOTE_CS4, 2, NOTE_D4, 4,
  NOTE_D5, -1, 
  REST,4, NOTE_AS4,4,  

  NOTE_D5, 2, NOTE_AS4, 4,//26
  NOTE_D5, 2, NOTE_AS4, 4,
  NOTE_F5, 2, NOTE_E5, 4,
  NOTE_DS5, 2, NOTE_B4, 4,
  NOTE_DS5, -4, NOTE_D5, 8, NOTE_CS5, 4,
  NOTE_CS4, 2, NOTE_AS4, 4,
  NOTE_G4, -1 
  
};

int tempo1 = 85;

const int melody1[] = {

  NOTE_G4,8, NOTE_C4,8, NOTE_DS4,16, NOTE_F4,16, NOTE_G4,8, NOTE_C4,8, NOTE_DS4,16, NOTE_F4,16, //1
  NOTE_G4,8, NOTE_C4,8, NOTE_DS4,16, NOTE_F4,16, NOTE_G4,8, NOTE_C4,8, NOTE_DS4,16, NOTE_F4,16,
  NOTE_G4,8, NOTE_C4,8, NOTE_E4,16, NOTE_F4,16, NOTE_G4,8, NOTE_C4,8, NOTE_E4,16, NOTE_F4,16,
  NOTE_G4,8, NOTE_C4,8, NOTE_E4,16, NOTE_F4,16, NOTE_G4,8, NOTE_C4,8, NOTE_E4,16, NOTE_F4,16,
  NOTE_G4,-4, NOTE_C4,-4,//5

  NOTE_DS4,16, NOTE_F4,16, NOTE_G4,4, NOTE_C4,4, NOTE_DS4,16, NOTE_F4,16, //6
  NOTE_D4,-1, //7 and 8
  NOTE_F4,-4, NOTE_AS3,-4,
  NOTE_DS4,16, NOTE_D4,16, NOTE_F4,4, NOTE_AS3,-4,
  NOTE_DS4,16, NOTE_D4,16, NOTE_C4,-1, //11 and 12

  //repeats from 5
  NOTE_G4,-4, NOTE_C4,-4,//5

  NOTE_DS4,16, NOTE_F4,16, NOTE_G4,4, NOTE_C4,4, NOTE_DS4,16, NOTE_F4,16, //6
  NOTE_D4,-1, //7 and 8
  NOTE_F4,-4, NOTE_AS3,-4,
  NOTE_DS4,16, NOTE_D4,16, NOTE_F4,4, NOTE_AS3,-4,
  NOTE_DS4,16, NOTE_D4,16, NOTE_C4,-1, //11 and 12
  NOTE_G4,-4, NOTE_C4,-4,
  NOTE_DS4,16, NOTE_F4,16, NOTE_G4,4,  NOTE_C4,4, NOTE_DS4,16, NOTE_F4,16,

  NOTE_D4,-2,//15
  NOTE_F4,-4, NOTE_AS3,-4,
  NOTE_D4,-8, NOTE_DS4,-8, NOTE_D4,-8, NOTE_AS3,-8,
  NOTE_C4,-1,
  NOTE_C5,-2,
  NOTE_AS4,-2,
  NOTE_C4,-2,
  NOTE_G4,-2,
  NOTE_DS4,-2,
  NOTE_DS4,-4, NOTE_F4,-4, 
  NOTE_G4,-1,
  
  NOTE_C5,-2,//28
  NOTE_AS4,-2,
  NOTE_C4,-2,
  NOTE_G4,-2, 
  NOTE_DS4,-2,
  NOTE_DS4,-4, NOTE_D4,-4,
  NOTE_C5,8, NOTE_G4,8, NOTE_GS4,16, NOTE_AS4,16, NOTE_C5,8, NOTE_G4,8, NOTE_GS4,16, NOTE_AS4,16,
  NOTE_C5,8, NOTE_G4,8, NOTE_GS4,16, NOTE_AS4,16, NOTE_C5,8, NOTE_G4,8, NOTE_GS4,16, NOTE_AS4,16,
  
  REST,4, NOTE_GS5,16, NOTE_AS5,16, NOTE_C6,8, NOTE_G5,8, NOTE_GS5,16, NOTE_AS5,16,
  NOTE_C6,8, NOTE_G5,16, NOTE_GS5,16, NOTE_AS5,16, NOTE_C6,8, NOTE_G5,8, NOTE_GS5,16, NOTE_AS5,16  
};



int tempo2 = 140;

const int melody2[] = {

  NOTE_AS4,8, NOTE_AS4,8, NOTE_AS4,8,//1
  NOTE_F5,2, NOTE_C6,2,
  NOTE_AS5,8, NOTE_A5,8, NOTE_G5,8, NOTE_F6,2, NOTE_C6,4,  
  NOTE_AS5,8, NOTE_A5,8, NOTE_G5,8, NOTE_F6,2, NOTE_C6,4,  
  NOTE_AS5,8, NOTE_A5,8, NOTE_AS5,8, NOTE_G5,2, NOTE_C5,8, NOTE_C5,8, NOTE_C5,8,
  NOTE_F5,2, NOTE_C6,2,
  NOTE_AS5,8, NOTE_A5,8, NOTE_G5,8, NOTE_F6,2, NOTE_C6,4,  
  
  NOTE_AS5,8, NOTE_A5,8, NOTE_G5,8, NOTE_F6,2, NOTE_C6,4, //8  
  NOTE_AS5,8, NOTE_A5,8, NOTE_AS5,8, NOTE_G5,2, NOTE_C5,-8, NOTE_C5,16, 
  NOTE_D5,-4, NOTE_D5,8, NOTE_AS5,8, NOTE_A5,8, NOTE_G5,8, NOTE_F5,8,
  NOTE_F5,8, NOTE_G5,8, NOTE_A5,8, NOTE_G5,4, NOTE_D5,8, NOTE_E5,4,NOTE_C5,-8, NOTE_C5,16,
  NOTE_D5,-4, NOTE_D5,8, NOTE_AS5,8, NOTE_A5,8, NOTE_G5,8, NOTE_F5,8,
  
  NOTE_C6,-8, NOTE_G5,16, NOTE_G5,2, REST,8, NOTE_C5,8,//13
  NOTE_D5,-4, NOTE_D5,8, NOTE_AS5,8, NOTE_A5,8, NOTE_G5,8, NOTE_F5,8,
  NOTE_F5,8, NOTE_G5,8, NOTE_A5,8, NOTE_G5,4, NOTE_D5,8, NOTE_E5,4,NOTE_C6,-8, NOTE_C6,16,
  NOTE_F6,4, NOTE_DS6,8, NOTE_CS6,4, NOTE_C6,8, NOTE_AS5,4, NOTE_GS5,8, NOTE_G5,4, NOTE_F5,8,
  NOTE_C6,1
  
};

char buzzer = BUZZER_PIN;

void play(int song, int note) {
  if(song == 0) {
    int wholenote = (60000 * 4) / tempo0;
    int divider = melody0[note + 1];
    int noteDuration = 0; 
    if (divider > 0) {
      noteDuration = (wholenote) / divider;
    } else if (divider < 0) {
      noteDuration = (wholenote) / abs(divider);
      noteDuration *= 1.5; // increases the duration in half for dotted notes
    }
    tone(buzzer, melody0[note], noteDuration*0.9);
    readButtons();
    unsigned long lastTime = millis();
    while(millis() - lastTime < noteDuration) {
      readButtons();
      if(stopFlag || nextFlag || prevFlag) return;
    }
    noTone(buzzer);
 }
  else if(song == 1) {
    int wholenote = (60000 * 4) / tempo1;
    int divider = melody1[note + 1];
    int noteDuration = 0; 
    if (divider > 0) {
      noteDuration = (wholenote) / divider;
    } else if (divider < 0) {
      noteDuration = (wholenote) / abs(divider);
      noteDuration *= 1.5; // increases the duration in half for dotted notes
    }
    tone(buzzer, melody1[note], noteDuration*0.9);
    readButtons();
    unsigned long lastTime = millis();
    while(millis() - lastTime < noteDuration) {
      readButtons();
      if(stopFlag || nextFlag || prevFlag) return;
    }
    noTone(buzzer);
  }
  else if(song == 2) {
    int wholenote = (60000 * 4) / tempo2;
    int divider = melody2[note + 1];
    int noteDuration = 0; 
    if (divider > 0) {
      noteDuration = (wholenote) / divider;
    } else if (divider < 0) {
      noteDuration = (wholenote) / abs(divider);
      noteDuration *= 1.5; // increases the duration in half for dotted notes
    }
    tone(buzzer, melody2[note], noteDuration*0.9);
    readButtons();
    unsigned long lastTime = millis();
    while(millis() - lastTime < noteDuration) {
      readButtons();
      if(stopFlag || nextFlag || prevFlag) return;
    }
    noTone(buzzer);
  }

}

int digitalReadCleanSTOP() {
  static int buttonState;
  static int lastButtonState = LOW; 
  static unsigned long lastDebounceTime = 0;
  static unsigned long debounceDelay = 50; 
  static int reading;

  reading = digitalRead(STOP_BUTTON_PIN);
  
  if (reading != lastButtonState) {
    lastDebounceTime = millis();
  }

  if ((millis() - lastDebounceTime) > debounceDelay) {
    if (reading != buttonState) {
      buttonState = reading;
      if (buttonState == HIGH) {
        stopFlag = 1;
      }
    }
  }
  lastButtonState = reading;
}


int digitalReadCleanNEXT() {
  static int buttonState;
  static int lastButtonState = LOW; 
  static unsigned long lastDebounceTime = 0;
  static unsigned long debounceDelay = 50; 
  static int reading;

  reading = digitalRead(NEXT_BUTTON_PIN);
  
  if (reading != lastButtonState) {
    lastDebounceTime = millis();
  }

  if ((millis() - lastDebounceTime) > debounceDelay) {
    if (reading != buttonState) {
      buttonState = reading;
      if (buttonState == HIGH) {
        nextFlag = 1;
      }
    }
  }
  lastButtonState = reading;
}

int digitalReadCleanPREV() {
  static int buttonState;
  static int lastButtonState = LOW; 
  static unsigned long lastDebounceTime = 0;
  static unsigned long debounceDelay = 50; 
  static int reading;

  reading = digitalRead(PREV_BUTTON_PIN);
  
  if (reading != lastButtonState) {
    lastDebounceTime = millis();
  }

  if ((millis() - lastDebounceTime) > debounceDelay) {
    if (reading != buttonState) {
      buttonState = reading;
      if (buttonState == HIGH) {
        prevFlag = 1;
      }
    }
  }
  lastButtonState = reading;
}

void readButtons() {
  digitalReadCleanSTOP();
  digitalReadCleanNEXT();
  digitalReadCleanPREV();
}

int songSize(int song) {
  switch(song) {
    case 0: return sizeof(melody0) / sizeof(melody0[0]); break;
    case 1: return sizeof(melody1) / sizeof(melody1[0]); break;
    case 2: return sizeof(melody2) / sizeof(melody2[0]); break;
    
  }
}

void changeTempo(int song, int tempo) {
  if(tempo <100) tempo = 100;
  if(tempo >400) tempo = 400;
  switch(song) {
    case 0: tempo0 = tempo; break;
    case 1: tempo1 = tempo; break;
    case 2: tempo2 = tempo; break;
  }
}

String getName(int song) {
    switch(song) {
    case 0: return "Harry Potter";
    case 1: return "Game of Thrones";
    case 2: return "Star Wars";

  }
}
